<svg xmlns="http://www.w3.org/2000/svg" xmlns:xlink="http://www.w3.org/1999/xlink" width="59" height="55" viewBox="0 0 59 55">
<path d="M58.992,10.537 L49.102,0.846 C49.100,0.845 49.100,0.845 49.099,0.844 L48.226,-0.013 L47.353,0.842 C47.352,0.844 47.352,0.844 47.351,0.845 L37.461,10.536 L39.209,12.249 L46.990,4.626 L46.990,30.778 C46.990,42.802 37.006,52.585 24.734,52.585 C12.463,52.585 2.479,42.802 2.479,30.778 L2.479,1.701 C2.479,1.031 1.925,0.490 1.243,0.490 C0.560,0.490 0.006,1.031 0.006,1.701 L0.006,30.778 C0.006,44.139 11.099,55.008 24.734,55.008 C38.370,55.008 49.463,44.139 49.463,30.778 L49.463,4.626 L57.243,12.250 L58.992,10.537 Z" fill="#FFFFFF"></path>
</svg>