<svg xmlns:xlink="http://www.w3.org/1999/xlink" xmlns="http://www.w3.org/2000/svg" width="65" height="65" viewBox="0 0 59 59"><path fill-rule="evenodd" d="M58.871,12.533 L56.070,19.757 C55.855,20.305 55.478,20.743 54.939,20.962 C54.454,21.180 53.916,21.180 53.431,20.962 L46.321,18.116 C45.298,17.732 44.813,16.583 45.190,15.543 C45.567,14.503 46.698,14.011 47.722,14.394 L49.984,15.270 C48.153,12.478 45.837,10.125 43.143,8.264 C39.104,5.527 34.256,3.940 29.140,3.940 C22.192,3.940 15.890,6.841 11.366,11.438 C6.788,16.091 3.987,22.439 3.987,29.499 C3.987,30.649 3.071,31.524 1.994,31.524 C0.917,31.524 0.001,30.594 0.001,29.499 C0.001,21.345 3.287,13.956 8.619,8.647 C13.843,3.283 21.114,-0.001 29.140,-0.001 C35.064,-0.001 40.666,1.806 45.352,5.035 C48.853,7.388 51.815,10.508 54.023,14.230 L55.208,11.110 C55.585,10.070 56.716,9.577 57.740,9.960 C58.763,10.343 59.248,11.493 58.871,12.533 ZM32.587,36.888 C33.556,37.107 34.364,35.903 34.795,35.411 C36.573,33.440 36.626,32.838 38.350,33.768 L43.467,36.560 C45.459,37.764 42.820,41.705 40.828,42.799 C31.994,47.725 16.051,32.838 14.813,23.643 C14.274,19.867 20.253,11.876 22.461,16.911 L24.777,22.111 C25.800,25.012 22.515,25.723 22.569,27.365 C22.569,28.350 25.046,31.415 25.639,32.072 C26.824,33.385 30.594,36.396 32.587,36.888 ZM2.856,39.242 C3.071,38.695 3.448,38.257 3.987,38.038 C4.471,37.819 5.010,37.819 5.495,38.038 L12.604,40.884 C13.628,41.267 14.113,42.416 13.736,43.456 C13.359,44.496 12.227,44.988 11.204,44.605 L8.942,43.730 C10.773,46.521 13.089,48.874 15.782,50.735 C19.822,53.472 24.669,55.059 29.786,55.059 C36.734,55.059 43.036,52.158 47.560,47.561 C52.138,42.909 54.939,36.560 54.939,29.499 C54.939,28.350 55.855,27.474 56.932,27.474 C58.009,27.474 58.925,28.405 58.925,29.499 C58.925,37.655 55.693,44.988 50.415,50.352 C45.190,55.716 37.919,59.000 29.894,59.000 C23.969,59.000 18.368,57.194 13.682,53.965 C10.181,51.611 7.218,48.491 5.010,44.770 L3.825,47.889 C3.448,48.929 2.317,49.422 1.294,49.038 C0.270,48.655 -0.214,47.506 0.163,46.466 L2.856,39.242 Z" fill="#FFFFFF"></path></svg>