<svg xmlns="http://www.w3.org/2000/svg" xmlns:xlink="http://www.w3.org/1999/xlink" width="79.98" height="54.4" viewBox="0 0 75 51"><path fill-rule="evenodd" d="M74.870,40.669 C74.870,41.507 74.183,42.177 73.343,42.177 L70.244,42.177 C69.404,42.177 68.717,41.491 68.717,40.654 C68.717,39.816 69.404,39.130 70.244,39.130 L71.832,39.130 L71.939,18.276 L61.983,10.051 L49.676,10.051 L49.676,39.161 L52.746,39.161 C53.585,39.161 54.272,39.846 54.272,40.684 C54.272,41.522 53.585,42.208 52.746,42.208 L34.102,42.208 C33.262,42.208 32.575,41.522 32.575,40.684 C32.575,39.846 33.262,39.161 34.102,39.161 L46.623,39.161 L46.623,3.044 L10.771,3.044 L10.771,12.671 C10.771,13.509 10.084,14.194 9.244,14.194 C8.405,14.194 7.717,13.509 7.717,12.671 L7.717,1.520 C7.717,0.683 8.405,-0.003 9.244,-0.003 L48.134,-0.003 C48.974,-0.003 49.661,0.683 49.661,1.520 L49.661,7.004 L62.518,7.004 C62.884,7.004 63.220,7.126 63.495,7.355 L74.427,16.388 C74.779,16.677 74.977,17.119 74.992,17.576 L74.870,40.669 ZM26.269,15.398 C27.109,15.398 27.796,16.083 27.796,16.921 C27.796,17.759 27.109,18.444 26.269,18.444 L7.748,18.444 C6.908,18.444 6.221,17.759 6.221,16.921 C6.221,16.083 6.908,15.398 7.748,15.398 L26.269,15.398 ZM24.697,23.958 C24.681,24.796 23.994,25.467 23.154,25.467 L4.633,25.360 C3.793,25.360 3.106,24.674 3.121,23.821 C3.121,22.983 3.809,22.313 4.648,22.313 C4.648,22.313 4.648,22.313 4.664,22.313 L23.185,22.420 C24.025,22.420 24.712,23.105 24.697,23.958 ZM21.582,30.859 C21.582,31.712 20.895,32.382 20.055,32.382 L1.534,32.382 C0.694,32.382 0.007,31.697 0.007,30.859 C0.007,30.021 0.694,29.336 1.534,29.336 L20.055,29.336 C20.895,29.336 21.582,30.021 21.582,30.859 ZM9.244,33.585 C10.084,33.585 10.771,34.271 10.771,35.109 L10.771,39.161 L13.840,39.161 C14.680,39.161 15.367,39.846 15.367,40.684 C15.367,41.522 14.680,42.208 13.840,42.208 L9.244,42.208 C8.405,42.208 7.717,41.522 7.717,40.684 L7.717,35.109 C7.717,34.271 8.405,33.585 9.244,33.585 ZM24.025,37.287 C27.781,37.287 30.835,40.364 30.835,44.142 C30.835,47.920 27.781,50.997 24.025,50.997 C22.192,50.997 20.467,50.281 19.139,48.986 C17.810,47.676 17.093,45.970 17.093,44.142 C17.093,42.314 17.825,40.608 19.139,39.298 C20.452,38.003 22.192,37.287 24.025,37.287 ZM24.025,47.950 C26.101,47.950 27.781,46.244 27.781,44.142 C27.781,42.040 26.101,40.334 24.025,40.334 C21.918,40.334 20.146,42.070 20.146,44.142 C20.146,46.214 21.918,47.950 24.025,47.950 ZM66.656,29.594 L54.227,29.594 C53.387,29.594 52.700,28.909 52.700,28.071 L52.700,15.580 C52.700,14.742 53.387,14.057 54.227,14.057 L62.060,14.057 C62.441,14.057 62.808,14.194 63.083,14.453 L67.679,18.581 C67.999,18.870 68.182,19.282 68.182,19.708 L68.182,28.071 C68.182,28.909 67.495,29.594 66.656,29.594 ZM65.129,20.378 L61.464,17.088 L55.754,17.088 L55.754,26.548 L65.129,26.548 L65.129,20.378 ZM61.311,37.287 C65.068,37.287 68.121,40.364 68.121,44.142 C68.121,47.920 65.068,50.997 61.311,50.997 C59.479,50.997 57.754,50.281 56.425,48.986 C55.097,47.676 54.379,45.970 54.379,44.142 C54.379,42.314 55.112,40.608 56.425,39.298 C57.738,38.003 59.479,37.287 61.311,37.287 ZM61.311,47.950 C63.388,47.950 65.068,46.244 65.068,44.142 C65.068,42.040 63.388,40.334 61.311,40.334 C59.204,40.334 57.433,42.070 57.433,44.142 C57.433,46.214 59.204,47.950 61.311,47.950 Z" fill="#FFFFFF"></path></svg>