<svg xmlns="http://www.w3.org/2000/svg" xmlns:xlink="http://www.w3.org/1999/xlink" width="66" height="65" viewBox="0 0 66 65">
<path d="M65.963,3.738 C65.407,14.995 59.933,25.415 50.944,32.324 L47.945,34.630 L47.945,41.653 C47.945,47.484 45.653,52.967 41.490,57.090 L33.887,64.622 C33.640,64.867 33.309,64.998 32.972,64.998 C32.816,64.998 32.659,64.970 32.508,64.912 C32.030,64.730 31.706,64.287 31.680,63.781 L30.849,47.772 L29.967,48.450 C29.735,48.628 29.455,48.719 29.174,48.719 C28.962,48.719 28.749,48.668 28.555,48.563 C28.172,48.357 27.795,48.141 27.422,47.919 C26.797,48.428 26.128,48.981 25.475,49.521 C24.558,50.279 23.610,51.062 22.788,51.723 C22.553,51.912 22.264,52.010 21.973,52.010 C21.785,52.010 21.596,51.969 21.419,51.886 C19.615,51.040 17.999,49.912 16.618,48.532 C15.269,47.184 14.162,45.617 13.329,43.872 C13.112,43.418 13.183,42.881 13.509,42.497 L17.325,38.009 C17.050,37.565 16.785,37.112 16.533,36.653 C16.282,36.197 16.335,35.636 16.665,35.233 L17.322,34.432 L1.228,33.613 C0.718,33.587 0.270,33.266 0.087,32.793 C-0.097,32.320 0.018,31.784 0.380,31.426 L7.982,23.895 C12.145,19.771 17.680,17.500 23.567,17.500 C23.579,17.500 23.592,17.501 23.604,17.501 L31.027,17.717 L33.864,14.258 C40.690,5.932 50.801,0.766 61.606,0.083 L62.811,0.006 C63.661,-0.048 64.498,0.262 65.105,0.854 C65.712,1.447 66.036,2.270 65.994,3.114 L65.963,3.738 ZM34.115,60.770 L39.660,55.278 C43.334,51.638 45.357,46.799 45.357,41.653 L45.357,41.653 L45.357,36.620 L33.342,45.856 L34.115,60.770 ZM16.040,43.500 C16.693,44.693 17.503,45.775 18.455,46.726 C19.438,47.708 20.563,48.540 21.806,49.207 C22.449,48.683 23.141,48.111 23.817,47.552 C24.267,47.181 24.724,46.803 25.170,46.436 C23.906,45.519 22.715,44.506 21.607,43.402 C21.607,43.401 21.606,43.401 21.606,43.400 C21.606,43.400 21.605,43.400 21.605,43.399 C21.604,43.399 21.604,43.398 21.603,43.397 C20.604,42.401 19.679,41.337 18.834,40.214 L16.040,43.500 ZM23.548,20.064 C18.359,20.069 13.482,22.073 9.812,25.708 L4.268,31.200 L19.342,31.968 L28.973,20.222 L23.548,20.064 ZM63.288,2.681 C63.240,2.634 63.134,2.556 62.976,2.565 L61.771,2.642 C51.684,3.279 42.245,8.103 35.873,15.874 L19.230,36.172 C20.178,37.776 21.291,39.276 22.548,40.654 L29.385,33.882 C29.890,33.381 30.710,33.381 31.215,33.882 C31.721,34.382 31.721,35.194 31.215,35.695 L24.372,42.473 C25.808,43.777 27.377,44.927 29.060,45.902 L49.358,30.299 C57.749,23.848 62.859,14.122 63.378,3.612 L63.410,2.989 C63.417,2.832 63.337,2.728 63.288,2.681 ZM47.470,24.195 C46.059,24.195 44.649,23.663 43.575,22.599 C41.427,20.472 41.427,17.010 43.575,14.882 C44.615,13.852 45.998,13.284 47.470,13.284 C48.941,13.284 50.324,13.851 51.365,14.882 C53.512,17.010 53.512,20.472 51.365,22.599 C50.291,23.663 48.880,24.195 47.470,24.195 ZM49.534,16.695 C48.983,16.149 48.250,15.848 47.470,15.848 C46.690,15.848 45.956,16.149 45.405,16.695 C44.266,17.823 44.266,19.658 45.405,20.786 C46.543,21.914 48.396,21.914 49.535,20.786 C50.673,19.658 50.673,17.823 49.534,16.695 ZM34.417,32.417 C33.702,32.417 33.123,31.843 33.123,31.135 C33.123,30.427 33.702,29.853 34.417,29.853 C35.132,29.853 35.711,30.427 35.711,31.135 C35.711,31.843 35.132,32.417 34.417,32.417 ZM1.295,62.431 C2.011,62.431 2.592,63.006 2.592,63.715 C2.592,64.425 2.011,65.000 1.295,65.000 C0.579,65.000 -0.002,64.425 -0.002,63.715 C-0.002,63.006 0.579,62.431 1.295,62.431 ZM8.076,50.075 L11.172,48.548 C11.812,48.232 12.588,48.491 12.907,49.124 C13.226,49.758 12.965,50.528 12.325,50.843 L9.230,52.370 C7.884,53.034 6.984,54.370 6.881,55.856 L6.759,57.632 C6.738,57.932 6.889,58.129 6.981,58.221 C7.074,58.312 7.273,58.462 7.576,58.442 L9.369,58.320 C10.869,58.218 12.217,57.327 12.887,55.994 L14.429,52.927 C14.748,52.293 15.524,52.035 16.164,52.351 C16.804,52.667 17.064,53.436 16.746,54.070 L15.204,57.136 C14.126,59.281 11.958,60.714 9.546,60.878 L7.753,61.000 C7.676,61.005 7.599,61.008 7.523,61.008 C6.636,61.008 5.782,60.659 5.151,60.034 C4.465,59.355 4.110,58.415 4.176,57.457 L4.299,55.681 C4.464,53.291 5.912,51.143 8.076,50.075 Z" fill="#FFFFFF"></path>
</svg>