<svg xmlns="http://www.w3.org/2000/svg" xmlns:xlink="http://www.w3.org/1999/xlink" width="65" height="56.34" viewBox="0 0 60 52"><path fill-rule="evenodd" d="M9.375,37.142 C8.340,37.142 7.500,36.309 7.500,35.284 C7.500,34.259 8.340,33.427 9.375,33.427 L16.875,33.427 C17.910,33.427 18.750,34.259 18.750,35.284 C18.750,36.309 17.910,37.142 16.875,37.142 L9.375,37.142 ZM56.250,52.000 L3.750,52.000 C1.680,52.000 -0.000,50.335 -0.000,48.285 L-0.000,14.855 C-0.000,12.804 1.680,11.140 3.750,11.140 L24.375,11.140 C25.410,11.140 26.250,11.972 26.250,12.998 C26.250,14.023 25.410,14.855 24.375,14.855 L3.750,14.855 L3.750,22.284 L24.375,22.284 C25.410,22.284 26.250,23.116 26.250,24.141 C26.250,25.166 25.410,25.998 24.375,25.998 L3.750,25.998 L3.750,48.285 L56.250,48.285 L56.250,35.284 C56.250,34.259 57.090,33.427 58.125,33.427 C59.160,33.427 60.000,34.259 60.000,35.284 L60.000,48.285 C60.000,50.335 58.320,52.000 56.250,52.000 ZM45.934,36.897 C45.645,37.060 45.322,37.142 45.000,37.142 C44.677,37.142 44.355,37.060 44.066,36.897 C33.814,31.046 30.000,25.073 30.000,14.855 L30.000,7.426 C30.000,6.683 30.446,6.011 31.132,5.717 L44.257,0.146 C44.734,-0.051 45.262,-0.051 45.739,0.146 L58.864,5.717 C59.554,6.011 60.000,6.683 60.000,7.426 L60.000,14.855 C60.000,25.088 56.186,31.061 45.934,36.897 ZM56.250,8.652 L45.000,3.875 L33.750,8.652 L33.750,14.855 C33.750,23.421 36.615,28.141 45.000,33.130 C53.385,28.153 56.250,23.432 56.250,14.855 L56.250,8.652 ZM43.125,24.141 C43.102,24.141 43.072,24.141 43.046,24.141 C42.446,24.111 41.899,23.807 41.565,23.313 L37.815,17.741 C37.241,16.890 37.477,15.735 38.336,15.167 C39.187,14.602 40.354,14.829 40.935,15.683 L43.267,19.138 L49.162,11.835 C49.815,11.036 50.992,10.914 51.799,11.545 C52.609,12.188 52.736,13.354 52.091,14.156 L44.591,23.443 C44.231,23.889 43.691,24.141 43.125,24.141 Z" fill="#FFFFFF"></path></svg>