<svg xmlns="http://www.w3.org/2000/svg" xmlns:xlink="http://www.w3.org/1999/xlink" width="71" height="71" viewBox="0 0 71 71">
<path d="M62.717,71.000 L56.800,71.000 L14.200,71.000 L8.283,71.000 L0.000,71.000 L0.000,68.633 L7.100,68.633 L7.100,53.250 C7.100,43.463 15.063,35.500 24.850,35.500 L26.140,35.500 C23.744,33.391 22.068,30.496 21.514,27.217 L20.708,27.217 C17.772,27.217 15.383,24.827 15.383,21.891 C15.383,20.043 16.331,18.415 17.764,17.460 C17.922,7.807 25.810,-0.000 35.500,-0.000 C45.190,-0.000 53.078,7.807 53.236,17.460 C54.669,18.415 55.617,20.043 55.617,21.891 C55.617,23.733 54.676,25.359 53.250,26.315 L53.250,28.400 C53.250,31.662 50.596,34.317 47.333,34.317 L46.054,34.317 C45.679,34.734 45.283,35.129 44.861,35.500 L46.150,35.500 C55.937,35.500 63.900,43.463 63.900,53.250 L63.900,68.633 L71.000,68.633 L71.000,71.000 L62.717,71.000 ZM15.383,68.633 L55.617,68.633 L55.617,53.250 C55.617,51.293 54.024,49.700 52.067,49.700 L40.233,49.700 L35.500,49.700 L30.767,49.700 L18.933,49.700 C16.976,49.700 15.383,51.293 15.383,53.250 L15.383,68.633 ZM35.500,45.870 L39.158,38.555 C37.988,38.867 36.766,39.050 35.500,39.050 C34.234,39.050 33.011,38.867 31.842,38.555 L35.500,45.870 ZM28.852,37.867 L26.765,37.867 L31.498,47.333 L33.585,47.333 L28.852,37.867 ZM37.415,47.333 L39.502,47.333 L44.235,37.867 L42.148,37.867 L37.415,47.333 ZM24.136,37.903 C15.987,38.279 9.467,45.008 9.467,53.250 L9.467,68.633 L13.017,68.633 L13.017,53.250 C13.017,49.987 15.671,47.333 18.933,47.333 L28.852,47.333 L24.136,37.903 ZM17.750,21.891 C17.750,23.522 19.076,24.850 20.708,24.850 L21.300,24.850 L21.300,18.933 L20.708,18.933 C19.076,18.933 17.750,20.261 17.750,21.891 ZM53.250,21.891 C53.250,20.261 51.923,18.933 50.292,18.933 L49.700,18.933 L49.700,24.850 L50.292,24.850 C51.923,24.850 53.250,23.522 53.250,21.891 ZM50.883,28.400 L50.883,27.156 C50.687,27.178 50.494,27.217 50.292,27.217 L49.486,27.217 C49.203,28.896 48.628,30.475 47.808,31.901 C49.539,31.667 50.883,30.195 50.883,28.400 ZM49.486,16.567 L50.292,16.567 C50.475,16.567 50.648,16.602 50.826,16.621 C50.244,8.665 43.601,2.367 35.500,2.367 C27.399,2.367 20.756,8.665 20.173,16.621 C20.352,16.602 20.525,16.567 20.708,16.567 L21.514,16.567 C22.645,9.862 28.478,4.733 35.500,4.733 C42.522,4.733 48.354,9.862 49.486,16.567 ZM23.735,17.675 C27.709,17.241 30.767,14.790 30.767,11.833 C30.767,11.180 31.296,10.650 31.950,10.650 C32.604,10.650 33.133,11.180 33.133,11.833 C33.133,15.111 38.792,18.603 47.332,18.904 C47.315,12.393 42.014,7.100 35.500,7.100 C29.401,7.100 24.366,11.740 23.735,17.675 ZM44.944,31.950 C46.436,29.969 47.333,27.516 47.333,24.850 L47.333,21.276 C40.324,21.041 34.539,18.732 32.063,15.452 C30.498,17.947 27.362,19.730 23.667,20.050 L23.667,24.850 C23.667,29.635 26.527,33.756 30.621,35.618 C33.727,37.029 37.271,37.029 40.376,35.618 C41.157,35.263 41.890,34.825 42.569,34.317 L35.500,34.317 L35.500,31.950 L44.944,31.950 ZM61.533,53.250 C61.533,45.008 55.013,38.279 46.863,37.903 L42.148,47.333 L52.067,47.333 C55.329,47.333 57.983,49.987 57.983,53.250 L57.983,68.633 L61.533,68.633 L61.533,53.250 ZM40.233,22.483 C42.190,22.483 43.783,24.076 43.783,26.033 L41.417,26.033 C41.417,25.381 40.886,24.850 40.233,24.850 C39.580,24.850 39.050,25.381 39.050,26.033 L36.683,26.033 C36.683,24.076 38.276,22.483 40.233,22.483 ZM30.767,24.850 C30.113,24.850 29.583,25.381 29.583,26.033 L27.217,26.033 C27.217,24.076 28.809,22.483 30.767,22.483 C32.724,22.483 34.317,24.076 34.317,26.033 L31.950,26.033 C31.950,25.381 31.420,24.850 30.767,24.850 ZM35.500,54.433 C38.110,54.433 40.233,56.556 40.233,59.166 C40.233,61.777 38.110,63.900 35.500,63.900 C32.890,63.900 30.767,61.777 30.767,59.166 C30.767,56.556 32.890,54.433 35.500,54.433 ZM35.500,61.533 C36.805,61.533 37.867,60.472 37.867,59.166 C37.867,57.861 36.805,56.800 35.500,56.800 C34.195,56.800 33.133,57.861 33.133,59.166 C33.133,60.472 34.195,61.533 35.500,61.533 ZM53.250,55.616 L50.883,55.616 L50.883,53.250 L53.250,53.250 L53.250,55.616 ZM53.250,66.266 L50.883,66.266 L50.883,57.983 L53.250,57.983 L53.250,66.266 ZM61.533,20.117 L63.900,20.117 L63.900,22.483 L61.533,22.483 L61.533,20.117 ZM61.533,15.383 L63.900,15.383 L63.900,17.750 L61.533,17.750 L61.533,15.383 ZM61.533,10.650 L63.900,10.650 L63.900,13.017 L61.533,13.017 L61.533,10.650 ZM7.100,34.317 L9.467,34.317 L9.467,36.683 L7.100,36.683 L7.100,34.317 ZM7.100,29.583 L9.467,29.583 L9.467,31.950 L7.100,31.950 L7.100,29.583 ZM7.100,24.850 L9.467,24.850 L9.467,27.217 L7.100,27.217 L7.100,24.850 Z" fill="#FFFFFF"></path>
</svg>