<svg xmlns:xlink="http://www.w3.org/1999/xlink" xmlns="http://www.w3.org/2000/svg" viewBox="0 0 16 16" class=" fm-icon fill" width="20"  height="20" ><defs><symbol xmlns="http://www.w3.org/2000/svg" viewBox="0 0 21 21" id="ico_user">
<path d="M17.925 13.575a10.463 10.463 0 00-3.99-2.502A6.07 6.07 0 0016.57 6.07 6.077 6.077 0 0010.5 0a6.077 6.077 0 00-6.07 6.07 6.07 6.07 0 002.635 5.003 10.463 10.463 0 00-3.99 2.502A10.432 10.432 0 000 21h1.641c0-4.885 3.974-8.86 8.859-8.86s8.859 3.975 8.859 8.86H21c0-2.805-1.092-5.442-3.075-7.425zM10.5 10.5a4.435 4.435 0 01-4.43-4.43 4.434 4.434 0 014.43-4.429 4.434 4.434 0 014.43 4.429 4.435 4.435 0 01-4.43 4.43z"></path>
</symbol></defs>
<use xlink:href="#ico_user" fill="#FFFFFF"></use>
</svg>