<svg xmlns:xlink="http://www.w3.org/1999/xlink" xmlns="http://www.w3.org/2000/svg" width="1120" height="156" viewBox="0 0 1120 156" version="1.1">
<g>
<path fill="#FFFFFF" d=" M 1031.11 0.00 L 1031.63 0.00 C 1042.51 20.04 1054.28 39.60 1065.53 59.44 C 1080.13 84.85 1094.74 110.25 1109.35 135.66 C 1112.88 141.68 1116.13 147.86 1120.00 153.67 L 1120.00 156.00 L 1085.21 156.00 C 1072.71 134.69 1060.57 113.18 1048.20 91.80 C 1042.47 82.16 1037.29 72.19 1031.24 62.75 C 1013.10 93.70 995.46 124.95 977.48 156.00 L 941.56 156.00 C 971.37 103.98 1001.47 52.12 1031.11 0.00 Z"/>
<path fill="#FFFFFF" d=" M 223.64 61.66 C 235.53 41.26 246.97 20.58 259.11 0.34 C 262.63 5.46 265.43 11.02 268.59 16.36 C 295.45 62.88 322.01 109.58 349.03 156.00 L 313.04 156.00 C 295.01 125.07 277.35 93.92 259.44 62.92 C 256.63 66.13 254.76 69.99 252.66 73.67 C 236.91 101.12 221.08 128.53 205.35 156.00 L 169.42 156.00 C 187.46 124.54 205.58 93.11 223.64 61.66 Z"/>
<path fill="#FFFFFF" d=" M 11.76 24.79 C 21.07 14.43 35.57 10.83 49.03 10.63 C 63.35 10.50 77.67 10.62 92.00 10.57 C 105.57 10.46 120.28 12.83 130.63 22.33 C 141.72 32.39 145.10 48.20 144.78 62.61 C 134.60 62.56 124.42 62.62 114.23 62.58 C 113.29 57.47 112.92 51.80 109.29 47.74 C 105.30 43.07 98.85 41.77 92.99 41.80 C 79.33 41.80 65.66 41.80 52.00 41.80 C 46.36 41.79 40.20 42.89 36.12 47.12 C 32.06 51.29 31.04 57.37 31.04 62.96 C 31.01 74.97 31.07 86.98 31.02 98.99 C 30.99 105.24 30.89 112.04 34.50 117.46 C 38.05 122.81 44.80 124.78 50.93 124.78 C 64.29 124.86 77.66 124.75 91.02 124.82 C 97.16 124.91 104.06 124.23 108.60 119.61 C 112.74 115.58 113.39 109.57 114.06 104.14 C 124.33 103.93 134.60 103.99 144.87 104.12 C 144.95 118.12 141.92 133.37 131.48 143.47 C 122.79 152.12 110.28 155.07 98.44 156.00 L 45.60 156.00 C 33.61 154.92 20.98 151.61 12.44 142.57 C 4.09 134.03 1.15 121.93 0.00 110.40 L 0.00 55.63 C 1.23 44.63 3.99 33.12 11.76 24.79 Z"/>
<path fill="#FFFFFF" d=" M 390.29 16.28 C 398.01 11.69 407.19 10.60 416.01 10.58 C 433.34 10.57 450.67 10.59 468.00 10.58 C 475.72 10.61 483.54 10.24 491.14 11.94 C 498.61 13.60 505.84 17.31 510.62 23.43 C 516.97 31.44 518.77 42.02 518.79 51.99 C 508.61 52.33 498.40 52.37 488.23 51.98 C 487.33 49.29 486.91 46.22 484.85 44.12 C 482.19 41.71 478.35 41.86 475.01 41.77 C 454.99 41.88 434.97 41.71 414.95 41.85 C 410.82 41.67 406.18 43.93 405.44 48.35 C 404.72 52.90 404.54 57.73 405.79 62.21 C 407.03 66.04 411.22 67.77 414.98 67.65 C 436.64 67.79 458.31 67.55 479.98 67.76 C 491.18 67.98 503.34 71.27 510.55 80.45 C 518.29 90.13 519.11 103.15 518.78 115.04 C 518.73 125.88 516.44 137.58 508.54 145.55 C 501.75 152.56 491.82 155.10 482.41 156.00 L 409.62 156.00 C 400.51 154.93 390.92 152.48 384.31 145.69 C 376.20 137.58 373.67 125.49 374.10 114.38 C 384.23 114.47 394.36 114.34 404.48 114.45 C 405.31 117.14 405.75 120.14 407.67 122.31 C 410.11 124.70 413.75 124.76 416.94 124.82 C 436.98 124.77 457.03 124.83 477.07 124.79 C 481.11 125.00 485.78 123.30 487.00 119.06 C 488.11 114.44 488.04 109.49 487.08 104.86 C 485.99 100.48 481.16 98.72 477.07 98.96 C 456.70 98.93 436.32 99.02 415.95 98.93 C 405.43 98.88 394.15 97.17 385.92 90.07 C 377.55 82.98 374.35 71.65 374.02 61.04 C 373.80 51.61 373.52 41.85 376.85 32.86 C 379.28 26.03 383.95 19.90 390.29 16.28 Z"/>
<path fill="#FFFFFF" d=" M 583.51 21.52 C 593.02 13.47 605.84 10.78 618.02 10.61 C 633.01 10.54 648.00 10.57 662.99 10.60 C 676.11 10.67 690.18 13.68 699.89 23.11 C 709.72 32.60 713.02 46.79 713.23 60.03 C 713.30 75.01 713.25 90.00 713.26 104.98 C 713.19 118.58 710.22 133.30 700.18 143.18 C 691.85 151.65 679.84 154.76 668.39 156.00 L 613.61 156.00 C 602.35 154.83 590.56 151.91 582.14 143.86 C 572.40 134.75 568.95 120.96 568.45 108.05 C 568.25 96.70 568.42 85.35 568.37 74.00 C 568.42 64.87 567.93 55.63 569.80 46.63 C 571.64 37.14 576.00 27.82 583.51 21.52 M 612.41 42.68 C 604.51 44.36 599.54 52.25 599.60 60.03 C 599.41 74.68 599.59 89.33 599.52 103.98 C 599.48 109.68 600.67 115.93 605.03 119.95 C 608.99 123.72 614.66 124.79 619.94 124.79 C 633.64 124.82 647.34 124.79 661.03 124.80 C 666.82 124.87 673.18 123.72 677.29 119.29 C 681.16 115.23 682.17 109.38 682.18 103.97 C 682.22 90.32 682.20 76.67 682.19 63.02 C 682.18 57.57 681.29 51.68 677.47 47.51 C 673.62 43.18 667.57 41.84 662.00 41.82 C 649.66 41.76 637.33 41.84 625.00 41.79 C 620.79 41.82 616.51 41.61 612.41 42.68 Z"/>
<path fill="#FFFFFF" d=" M 765.39 10.96 C 772.52 10.30 779.75 10.38 786.89 10.80 C 791.91 14.05 795.49 19.09 799.90 23.10 C 826.35 49.43 852.42 76.16 879.08 102.26 C 879.51 71.79 879.11 41.31 879.28 10.83 C 889.56 10.34 899.89 10.52 910.19 10.73 C 910.46 59.15 910.28 107.58 910.28 156.00 L 888.36 156.00 C 862.05 129.86 836.04 103.41 809.81 77.19 C 805.47 72.97 801.51 68.33 796.75 64.56 C 796.28 95.03 796.57 125.52 796.60 156.00 L 765.38 156.00 C 765.45 107.65 765.43 59.30 765.39 10.96 Z"/>
</g>
</svg>