<svg xmlns:xlink="http://www.w3.org/1999/xlink" xmlns="http://www.w3.org/2000/svg" viewBox="0 0 16 16" class=" fm-icon fill" width="16"  height="16" ><defs><symbol xmlns="http://www.w3.org/2000/svg" viewBox="0 0 256 256" id="ico_close">
<path d="M14.17 0h1.35C53.06 37.52 90.45 75.18 128 112.69 165.55 75.18 202.94 37.51 240.48 0h1.36c4.73 4.7 9.43 9.44 14.16 14.15v.14c-37.69 37.8-75.43 75.54-113.06 113.39C180.6 165.5 218.31 203.26 256 241.05v.13c-4.89 4.98-9.86 9.88-14.78 14.82h-.12c-37.7-37.78-75.37-75.6-113.1-113.36C90.26 180.39 52.61 218.24 14.88 256h-.08c-4.95-4.92-9.89-9.85-14.8-14.81v-.16c37.7-37.77 75.42-75.54 113.06-113.38C75.39 89.85 37.69 52.08 0 14.29v-.13C4.73 9.44 9.43 4.7 14.17 0z"></path>
</symbol></defs>
<use xlink:href="#ico_close"></use>
</svg>